<svg width="123" height="53" viewBox="0 0 123 53" xmlns="http://www.w3.org/2000/svg"><title>0FD3809D-6E99-4BAC-B6C8-1877098F6754</title><g fill="#FFF" fill-rule="evenodd"><path d="M122.351 6.038c0 2.907-2.408 5.264-5.378 5.264s-5.38-2.357-5.38-5.264c0-2.908 2.41-5.265 5.38-5.265 2.97 0 5.378 2.357 5.378 5.265M14.304 31.94a69.23 69.23 0 0 0-.696 2.55c-.258 1.027-.496 1.96-.71 2.796-.213.82-.362 1.48-.445 1.96-.171.856-.742 1.395-1.655 1.57-.785.152-1.63.09-2.5-.188a5.87 5.87 0 0 1-2.319-1.413c-.715-.697-1.078-1.574-1.078-2.607 0-.84.215-2.169.657-4.06.43-1.845 1.052-4.034 1.85-6.506.79-2.453 1.749-5.156 2.848-8.032.946-2.472 2.005-4.96 3.155-7.412a2.583 2.583 0 0 1 2.053-1.459c2.031-.23 3.794-.174 5.286.17.9.208 1.383 1.166 1.006 1.992a115.78 115.78 0 0 0-2.644 6.252 253.81 253.81 0 0 0-1.839 4.89c-.057.157.107.303.261.234.775-.35 1.54-.76 2.287-1.23a16.71 16.71 0 0 0 3.317-2.735 13.548 13.548 0 0 0 2.37-3.497 9.554 9.554 0 0 0 .893-4.09c0-1.864-.527-3.24-1.566-4.09-1.052-.86-2.534-1.295-4.404-1.295-1.993 0-3.814.463-5.415 1.376-1.641.934-3.061 2.085-4.22 3.422-1.167 1.342-2.087 2.778-2.732 4.267-.64 1.476-.965 2.77-.965 3.845 0 .772-.416 1.33-1.17 1.569-.663.21-1.392.18-2.141-.094-.721-.263-1.389-.78-1.985-1.54-.601-.762-.905-1.796-.905-3.07 0-1.112.43-2.423 1.315-4.007.864-1.543 2.139-3.045 3.79-4.465 1.65-1.418 3.732-2.648 6.19-3.656 2.473-1.013 5.332-1.527 8.496-1.527 1.802 0 3.609.207 5.37.614 1.775.412 3.384 1.038 4.782 1.862 1.415.833 2.577 1.88 3.453 3.11.892 1.252 1.344 2.72 1.344 4.364 0 1.77-.397 3.43-1.18 4.934-.777 1.49-1.845 2.85-3.175 4.043-1.318 1.183-2.88 2.228-4.642 3.104a30.88 30.88 0 0 1-4.604 1.833c-.102.031-.14.083-.134.187.035.783.092 1.555.17 2.301.092.856.212 1.69.359 2.481.144.777.318 1.535.515 2.251.153.555.324 1.095.508 1.607.117.326.24.645.365.946.25.605.528 1.183.822 1.72.289.527.602 1.027.931 1.486.32.447.663.869 1.022 1.253.349.373.717.717 1.097 1.023.37.299.76.568 1.159.802a8.43 8.43 0 0 0 3.78 1.153c.443.027.905.02 1.366-.02.468-.04.946-.116 1.423-.225.487-.112.984-.262 1.478-.444a14.05 14.05 0 0 0 1.522-.672c.193-.098.388-.203.582-.313a1.433 1.433 0 0 1 1.856.393c.424.579.33 1.378-.218 1.846a30.248 30.248 0 0 1-2.737 2.103c-.604.411-1.217.79-1.821 1.129-.304.17-.622.338-.944.498-.621.308-1.25.58-1.87.81-.618.226-1.239.414-1.844.557-.605.143-1.213.247-1.808.307a12.73 12.73 0 0 1-1.764.053 11.54 11.54 0 0 1-2.522-.39 11.076 11.076 0 0 1-2.314-.925c-.48-.257-.952-.556-1.4-.886a12.54 12.54 0 0 1-1.055-.873c-.407-.375-.802-.79-1.176-1.234-.369-.437-.723-.91-1.052-1.405a17.806 17.806 0 0 1-.928-1.566 20.36 20.36 0 0 1-.805-1.719 23.818 23.818 0 0 1-.68-1.864c-.202-.636-.388-1.31-.553-2.004a31.014 31.014 0 0 1-.423-2.136 34.581 34.581 0 0 1-.265-1.982c-.021-.206-.317-.231-.375-.032"/><path d="M96.863 20.474a28.814 28.814 0 0 1-.794 3.17 35.627 35.627 0 0 1-1.366 3.677 46.842 46.842 0 0 1-1.822 3.527c-.61 1.059-1.216 1.97-1.8 2.707-.57.719-1.098 1.25-1.57 1.58-.356.249-.552.276-.62.276a.195.195 0 0 1-.085-.018c-.059-.025-.258-.16-.344-.791-.08-.58-.037-1.34.127-2.261.168-.95.435-2.026.795-3.198.357-1.17.817-2.41 1.37-3.687a30.698 30.698 0 0 1 1.781-3.51c.634-1.063 1.25-1.964 1.833-2.68.566-.697 1.095-1.22 1.573-1.555.357-.249.553-.276.62-.276.032 0 .059.005.083.016.059.026.257.16.345.793.08.58.037 1.33-.126 2.23m-24.083 0a28.722 28.722 0 0 1-.794 3.17 35.502 35.502 0 0 1-1.366 3.677 46.883 46.883 0 0 1-1.821 3.527c-.611 1.06-1.217 1.97-1.802 2.707-.569.718-1.097 1.25-1.57 1.58-.355.249-.55.276-.619.276a.196.196 0 0 1-.085-.018c-.058-.025-.257-.159-.344-.792-.08-.576-.037-1.336.127-2.26.168-.947.435-2.022.795-3.198.357-1.17.818-2.411 1.371-3.687a30.738 30.738 0 0 1 1.78-3.51c.635-1.064 1.252-1.966 1.832-2.68.57-.699 1.099-1.222 1.574-1.555.356-.249.553-.276.621-.276.032 0 .058.005.082.016.06.026.258.16.346.793.079.578.037 1.328-.127 2.23m-26.056-.056c-.104.939-.307 2.012-.603 3.191a29.386 29.386 0 0 1-1.208 3.678 40.758 40.758 0 0 1-1.596 3.523c-.544 1.052-1.095 1.95-1.636 2.669-.528.698-1.024 1.22-1.475 1.548-.334.243-.518.27-.582.27a.185.185 0 0 1-.08-.018c-.062-.026-.27-.164-.379-.806-.102-.587-.111-1.346-.029-2.254.084-.924.276-1.985.57-3.154.294-1.17.701-2.407 1.209-3.678a40.418 40.418 0 0 1 1.597-3.524c.541-1.051 1.092-1.96 1.638-2.7.526-.715 1.02-1.243 1.471-1.572.334-.243.519-.27.583-.27.03 0 .055.005.078.016.064.028.282.17.416.821.12.578.128 1.338.026 2.26m74.426 6.855c-.261-.398-.766-.655-1.286-.655-.493 0-.935.226-1.214.62-.319.452-.712.989-1.17 1.595a21.426 21.426 0 0 1-1.61 1.894c-.562.59-1.11 1.102-1.63 1.523-.536.436-.883.528-1.08.528-.137 0-.393 0-.451-.663-.06-.694.044-1.596.312-2.682.273-1.116.67-2.354 1.178-3.681a124.691 124.691 0 0 1 2.926-6.985c.402-.877.654-1.448.75-1.697.322-.723.204-1.435-.34-2.06-.5-.574-1.168-.975-1.987-1.195-.799-.214-1.67-.226-2.579-.037-.972.204-1.744.754-2.292 1.636-.483.773-1.11 1.989-1.867 3.612a61.29 61.29 0 0 0-2.18 5.37 63.295 63.295 0 0 0-1.15 3.57 10.137 10.137 0 0 1-3.414 5.089c-.589.47-1.208.914-1.852 1.326-.284.183-.57.352-.858.507-.091.049-.186-.059-.123-.14.496-.64.985-1.331 1.461-2.07.982-1.522 1.876-3.345 2.66-5.417.827-2.195 1.346-4.196 1.542-5.95.198-1.775.13-3.324-.205-4.604-.346-1.321-.951-2.36-1.8-3.09-.877-.753-1.963-1.135-3.224-1.135-1.488 0-2.855.386-4.064 1.146a16.095 16.095 0 0 0-2.284 1.731c-.058.053-.106.046-.147-.019a2.898 2.898 0 0 0-.623-.677c-.586-.475-1.292-.792-2.098-.944a4.939 4.939 0 0 0-2.433.161c-.858.276-1.497.846-1.901 1.694a93.497 93.497 0 0 0-2.434 5.672 157.585 157.585 0 0 0-2.685 7.355 10.158 10.158 0 0 1-3.524 4.848c-.434.326-.882.637-1.342.932-.285.183-.572.352-.86.507-.09.049-.185-.059-.122-.14.496-.64.984-1.33 1.46-2.07.982-1.52 1.877-3.343 2.66-5.417.828-2.195 1.347-4.196 1.543-5.95.198-1.776.13-3.325-.205-4.604-.345-1.32-.95-2.36-1.799-3.09-.878-.753-1.964-1.135-3.224-1.135-1.49 0-2.856.386-4.065 1.145a16.09 16.09 0 0 0-2.284 1.732c-.058.052-.105.046-.147-.02a2.897 2.897 0 0 0-.623-.676c-.586-.475-1.292-.792-2.099-.944a4.93 4.93 0 0 0-2.432.161c-.856.275-1.496.845-1.902 1.695a93.972 93.972 0 0 0-2.433 5.671 156.658 156.658 0 0 0-2.278 6.169c-.548 1.583-1.368 2.855-2.592 4.02-.316.301-.624.574-.922.815-.537.436-.884.528-1.08.528-.138 0-.394 0-.452-.664-.06-.692.045-1.594.312-2.681.273-1.115.67-2.354 1.178-3.681a116.859 116.859 0 0 1 1.544-3.833c.517-1.217.982-2.278 1.382-3.153.41-.894.655-1.45.75-1.697.323-.722.205-1.434-.34-2.06-.5-.574-1.181-.976-2.023-1.195a5.558 5.558 0 0 0-2.578-.035c-.95.204-1.709.754-2.256 1.633-.11.174-.224.366-.345.58-.043.075-.16.058-.177-.027a5.07 5.07 0 0 0-.502-1.355 4.007 4.007 0 0 0-1.515-1.533c-.671-.395-1.523-.595-2.532-.595-2.38 0-4.792 1.075-7.171 3.195-2.336 2.081-4.272 5.401-5.756 9.871-.697 2.156-1.105 4.148-1.215 5.922-.11 1.795.038 3.345.44 4.605.414 1.299 1.074 2.324 1.965 3.047.918.748 2.021 1.127 3.278 1.127.93 0 1.818-.158 2.639-.468a9.969 9.969 0 0 0 2.19-1.148 9.772 9.772 0 0 0 1.408-1.197.581.581 0 0 1 .97.228c.14.466.337.881.588 1.242.622.89 1.606 1.343 2.924 1.343 1.46 0 2.936-.536 4.385-1.594a24.312 24.312 0 0 0 1.976-1.606c.143-.13.37.01.314.192a179.275 179.275 0 0 0-1.011 3.4c-.51 1.776-.923 3.306-1.231 4.548-.412 1.665-.465 2.118-.465 2.327 0 1.02.324 1.89.963 2.587.618.67 1.334 1.15 2.13 1.428a4.642 4.642 0 0 0 1.52.274c.267 0 .531-.028.785-.084.57-.127 1.295-.5 1.505-1.555l.004-.02c.084-.557.244-1.31.476-2.24.24-.966.533-2.065.87-3.267.332-1.196.711-2.528 1.16-4.072.207-.713.429-1.461.665-2.238a.194.194 0 0 1 .35-.04c.105.177.222.35.351.52.727.952 1.886 1.437 3.446 1.44.313.013.627.02.935.02 2.294 0 4.448-.385 6.403-1.145a25.95 25.95 0 0 0 5.102-2.637c.15-.1.345.04.293.21-.438 1.41-.832 2.731-1.18 3.944a138.5 138.5 0 0 0-1.231 4.548c-.411 1.668-.465 2.12-.465 2.327 0 1.02.324 1.89.964 2.587.618.67 1.334 1.15 2.13 1.428a4.646 4.646 0 0 0 1.518.274c.268 0 .533-.028.787-.084.57-.127 1.295-.5 1.506-1.555l.004-.021c.083-.558.244-1.312.475-2.24.24-.965.533-2.064.87-3.266.333-1.201.713-2.533 1.16-4.072.207-.715.43-1.463.665-2.238.048-.159.266-.184.35-.041.105.178.223.351.352.52.725.953 1.885 1.438 3.445 1.44.313.014.627.021.935.021 2.293 0 4.448-.385 6.403-1.145 2.188-.849 4.165-1.918 5.878-3.178.29-.215.574-.431.85-.65.127-.1.316-.01.313.149l-.001.213c0 1.34.287 2.433.855 3.248.622.89 1.606 1.343 2.923 1.343 1.458 0 2.944-.536 4.415-1.591a24.71 24.71 0 0 0 3.925-3.524 37.791 37.791 0 0 0 3.107-3.899 143.36 143.36 0 0 0 1.815-2.69c.271-.417.279-.88.022-1.272"/></g></svg>